<svg width="396" height="169.52776852804" viewBox="0 0 350 149.8351489515505" class="looka-1j8o68f"><defs id="SvgjsDefs2947"><linearGradient id="SvgjsLinearGradient2952"><stop id="SvgjsStop2953" stop-color="#905e26" offset="0"></stop><stop id="SvgjsStop2954" stop-color="#f5ec9b" offset="0.5"></stop><stop id="SvgjsStop2955" stop-color="#905e26" offset="1"></stop></linearGradient></defs><g id="SvgjsG2948" featurekey="symbolFeature-0" transform="matrix(1.1345954177255684,0,0,1.1345954177255684,119.1846479808598,-2.155731401882031)" fill="#fce38f"><path xmlns="http://www.w3.org/2000/svg" d="M78.9,71.5l3.5,2l0.1-0.2c4.9-6.8,7.5-14.9,7.5-23.4c0.1-10.9-4-21.1-11.6-28.7C70.8,13.5,60.7,9.3,49.8,9.3  C27.5,9.3,9.4,27.4,9.4,49.7s18.1,40.4,40.4,40.4c3.9,0,7.6-0.5,11.1-1.6l0.2-0.1l-0.8-4l-0.3,0.1c-3.4,1-6.9,1.6-10.4,1.6  c-20,0-36.3-16.3-36.3-36.3c0-20,16.3-36.3,36.3-36.3s36.3,16.3,36.3,36.3c0,7.7-2.4,15.1-7,21.5L78.9,71.5z"></path><path xmlns="http://www.w3.org/2000/svg" d="M84,16.1C74.8,6.9,62.7,1.9,49.8,1.9c-4.5,0-8.8,0.6-12.9,1.8l-0.2,0.1l0.7,3.7l0.3-0.1  c4-1.1,8.1-1.7,12.1-1.7c24.5,0,44.5,19.9,44.5,44.5S74.3,94.6,49.8,94.6C25.3,94.5,5.4,74.5,5.4,50c0-9.3,2.8-18.1,8.2-25.7  l0.2-0.2l-3.3-1.9l-0.1,0.2c-5.7,8.1-8.8,17.7-8.8,27.7c0,26.5,21.6,48.1,48.1,48.1C76.3,98.3,98,76.7,98,50.1  C98,37.3,93,25.2,84,16.1z"></path><path xmlns="http://www.w3.org/2000/svg" d="M65.6,30.4H33.9c-3.7,0-6.7,3-6.7,6.7v24.1c0,3.7,3,6.7,6.7,6.7h14.3v4.5h-6c-0.9,0-1.6,0.7-1.6,1.5  c0,0.8,0.7,1.5,1.6,1.5h15.1c0.9,0,1.6-0.7,1.6-1.5c0-0.8-0.7-1.5-1.6-1.5h-6V68h14.4c3.7,0,6.7-3,6.7-6.7V37.2  C72.3,33.5,69.3,30.4,65.6,30.4z M69.3,60.3v1c0,2.1-1.7,3.7-3.7,3.7H33.9c-2.1,0-3.7-1.7-3.7-3.7v-1H69.3z M69.3,37.2v20.1H30.1  V37.2c0-2.1,1.7-3.7,3.7-3.7h31.7C67.6,33.4,69.3,35.1,69.3,37.2z"></path><rect xmlns="http://www.w3.org/2000/svg" x="39.3" y="38.9" width="8.2" height="8.2"></rect><rect xmlns="http://www.w3.org/2000/svg" x="39.3" y="49.9" width="21.8" height="2.8"></rect><rect xmlns="http://www.w3.org/2000/svg" x="50.2" y="38.9" width="10.9" height="2.9"></rect><rect xmlns="http://www.w3.org/2000/svg" x="50.2" y="44.2" width="10.9" height="2.9"></rect></g><g id="SvgjsG2949" featurekey="nameFeature-0" transform="matrix(0.6223162854368071,0,0,0.6223162854368071,-1.9914118463286063,124.91760520314376)" fill="url(#SvgjsLinearGradient2952)"><path d="M27.64 7.039999999999999 c0.32 0 1.12 0.16 1.12 1.4 l0 3.08 c0 1.28 -0.8 1.44 -1.12 1.44 l-14.36 0 c-0.84 0 -1.56 0.08 -2.08 0.28 c-0.52 0.16 -0.88 0.44 -1.2 0.88 s-0.52 1 -0.68 1.76 c-0.12 0.76 -0.2 1.76 -0.2 2.96 l0 9.32 c0 1.2 0.08 2.2 0.2 3 c0.16 0.76 0.36 1.36 0.68 1.76 c0.32 0.44 0.68 0.72 1.2 0.88 c0.52 0.2 1.24 0.28 2.08 0.28 l14.36 0 c0.32 0 1.12 0.16 1.12 1.4 l0 3.16 c0 1.24 -0.8 1.4 -1.12 1.4 l-14.56 0 c-1.76 0 -3.28 -0.24 -4.52 -0.68 s-2.28 -1.2 -3.08 -2.2 c-0.8 -1.04 -1.4 -2.36 -1.76 -3.92 c-0.36 -1.6 -0.52 -3.52 -0.52 -5.76 l0 -7.92 c0 -2.2 0.16 -4.12 0.52 -5.68 c0.36 -1.6 0.96 -2.92 1.76 -3.92 c0.76 -1 1.8 -1.76 3.08 -2.24 c1.24 -0.44 2.76 -0.68 4.52 -0.68 l14.56 0 z M65.529 9.96 c0.8 1 1.36 2.32 1.72 3.92 c0.32 1.56 0.52 3.48 0.52 5.68 l0 7.92 c0 2.24 -0.2 4.16 -0.52 5.72 c-0.36 1.6 -0.92 2.92 -1.72 3.96 c-0.8 1 -1.84 1.76 -3.12 2.2 c-1.24 0.44 -2.76 0.68 -4.52 0.68 l-9.76 0 c-1.76 0 -3.28 -0.24 -4.48 -0.68 c-1.28 -0.44 -2.32 -1.2 -3.12 -2.24 c-0.76 -1 -1.36 -2.32 -1.72 -3.92 c-0.36 -1.56 -0.52 -3.48 -0.52 -5.72 l0 -7.92 c0 -2.24 0.16 -4.12 0.52 -5.68 c0.36 -1.6 0.96 -2.92 1.72 -3.92 c0.8 -1 1.84 -1.76 3.12 -2.24 c1.24 -0.44 2.72 -0.68 4.48 -0.68 l9.76 0 c1.76 0 3.28 0.24 4.52 0.68 c1.28 0.48 2.32 1.24 3.12 2.24 z M61.809 18.88 c0 -1.16 -0.04 -2.16 -0.2 -2.96 c-0.12 -0.76 -0.36 -1.36 -0.68 -1.8 c-0.28 -0.4 -0.68 -0.68 -1.2 -0.88 c-0.52 -0.16 -1.2 -0.28 -2.04 -0.28 l-9.36 0 c-0.84 0 -1.52 0.12 -2.04 0.28 c-0.52 0.2 -0.92 0.48 -1.2 0.88 c-0.32 0.44 -0.52 1.04 -0.68 1.8 c-0.12 0.8 -0.2 1.8 -0.2 2.96 l0 9.32 c0 1.16 0.08 2.16 0.2 2.96 c0.16 0.72 0.36 1.36 0.68 1.76 c0.28 0.44 0.68 0.72 1.2 0.88 c0.52 0.2 1.2 0.28 2.04 0.28 l9.36 0 c0.84 0 1.52 -0.08 2.04 -0.28 c0.52 -0.16 0.92 -0.44 1.2 -0.88 c0.32 -0.4 0.56 -1.04 0.68 -1.76 c0.16 -0.8 0.2 -1.8 0.2 -2.96 l0 -9.32 z M104.618 14.48 c0.4 1.68 0.6 3.68 0.6 5.92 l0 6.28 c0 2.24 -0.2 4.24 -0.6 5.92 s-1.08 3.08 -1.92 4.16 c-0.88 1.12 -2.04 1.96 -3.4 2.48 c-1.32 0.52 -2.96 0.8 -4.84 0.8 l-13.68 0 c-1.24 0 -2.4 -0.64 -3.04 -1.72 c-0.2 -0.36 -0.36 -0.8 -0.44 -1.24 l0.04 -27.32 c0.08 -0.32 0.24 -0.68 0.4 -1 c0.6 -0.96 1.6 -1.6 2.76 -1.68 l0 -0.04 l13.96 0 c1.88 0 3.48 0.28 4.84 0.8 s2.52 1.36 3.4 2.44 c0.84 1.12 1.52 2.52 1.92 4.2 z M83.178 33.88 c0 0.16 0.04 0.2 0.04 0.2 l11.12 0 c0.92 0 1.72 -0.08 2.36 -0.32 s1.12 -0.6 1.48 -1.08 c0.4 -0.52 0.68 -1.2 0.84 -2.08 s0.28 -2 0.28 -3.32 l0 -7.48 c0 -1.32 -0.12 -2.44 -0.28 -3.36 c-0.16 -0.84 -0.44 -1.52 -0.84 -2.04 c-0.36 -0.52 -0.84 -0.84 -1.48 -1.08 s-1.44 -0.36 -2.36 -0.36 l-11.08 0 c-0.04 0 -0.08 0.08 -0.08 0.24 l0 20.68 z M138.787 32.84 c0.36 0 1.16 0.12 1.16 1.36 l0 4.4 c0 1.24 -0.8 1.36 -1.16 1.36 l-14.2 0 c-1.76 0 -3.24 -0.2 -4.48 -0.68 c-1.28 -0.44 -2.32 -1.16 -3.12 -2.2 c-0.76 -1 -1.36 -2.32 -1.72 -3.92 c-0.28 -1.32 -0.48 -2.92 -0.52 -4.8 l0 -0.2 l0.08 -5.04 c0.08 -0.36 0.24 -0.68 0.44 -1 c0.56 -1 1.56 -1.6 2.72 -1.68 l20.64 -0.04 c0.32 0 1.12 0.12 1.12 1.36 l0 3.16 c0 1.24 -0.8 1.4 -1.12 1.4 l-17.88 0 c-0.04 0 -0.08 2.88 -0.08 2.88 l0.08 0.68 c0.12 0.76 0.36 1.36 0.68 1.8 c0.32 0.4 0.68 0.68 1.2 0.88 c0.56 0.16 1.24 0.28 2.08 0.28 l14.08 0 z M138.827 6.960000000000001 c0.32 0 1.12 0.16 1.12 1.4 l0 3.16 c0 1.24 -0.8 1.4 -1.12 1.4 l-23 -0.04 c-0.32 0 -1.08 -0.12 -1.08 -1.36 l0 -3.12 c0 -1.28 0.76 -1.44 1.08 -1.44 l23 0 z M221.485 6.560000000000002 c0.64 0 0.84 0.36 0.88 0.6 c0.08 0.28 0.04 0.6 -0.08 0.96 l-8.92 27.68 c-0.6 1.48 -1.16 2.44 -1.76 2.96 c-0.16 0.12 -0.36 0.28 -0.6 0.4 c-0.8 0.56 -1.76 0.84 -2.76 0.84 c-2.2 0 -4.16 -1.48 -4.76 -3.56 l-0.28 -0.6 l-5.52 -18.44 l-5.92 18.4 c-0.6 1.48 -1.2 2.44 -1.76 2.96 c-0.2 0.12 -0.36 0.28 -0.6 0.4 c-0.8 0.56 -1.76 0.84 -2.76 0.84 c-2.2 0 -4.16 -1.48 -4.76 -3.56 l-0.28 -0.6 l-8.28 -27.72 c-0.16 -0.36 -0.16 -0.68 -0.08 -0.96 c0.04 -0.2 0.2 -0.6 0.84 -0.6 l4.28 0 c0.56 0 0.96 0.32 1.16 0.88 l7 24.04 c0 0.04 0.04 0.08 0.04 0.08 l0.16 -0.04 l0.04 -0.08 l7.56 -24 c0.24 -0.56 0.64 -0.88 1.16 -0.88 l4.52 0 c0.52 0 0.92 0.32 1.12 0.88 l7 24.04 c0 0.04 0.04 0.08 0.04 0.08 l0.16 -0.04 l0.04 -0.08 l7.56 -24 c0.24 -0.56 0.64 -0.88 1.16 -0.88 l4.4 0 z M236.774 7.039999999999999 c0.32 0 1.12 0.16 1.12 1.4 l0 30.2 c0 1.24 -0.8 1.4 -1.12 1.4 l-3.68 0 c-0.32 0 -1.12 -0.16 -1.12 -1.4 l0 -30.2 c0 -1.24 0.8 -1.4 1.12 -1.4 l3.68 0 z M275.063 7.039999999999999 c0.36 0 1.16 0.12 1.16 1.36 l0 3.12 c0 1.32 -0.8 1.44 -1.16 1.44 l-10.28 0 l0 25.68 c0 1.24 -0.76 1.36 -1.12 1.36 l-3.68 0 c-0.32 0 -1.12 -0.12 -1.12 -1.36 l0 -25.68 l-10.28 0 c-0.36 0 -1.16 -0.12 -1.16 -1.44 l0 -3.12 c0 -1.24 0.8 -1.36 1.16 -1.36 l26.48 0 z M311.59200000000004 7.039999999999999 c0.36 0 1.16 0.16 1.16 1.4 l0 30.2 c0 1.24 -0.8 1.4 -1.16 1.4 l-3.68 0 c-0.32 0 -1.08 -0.16 -1.08 -1.4 l0 -12.32 l-15.16 0 l0 12.32 c0 1.24 -0.76 1.4 -1.12 1.4 l-3.64 0 c-0.36 0 -1.16 -0.16 -1.16 -1.4 l0 -30.2 c0 -1.24 0.8 -1.4 1.16 -1.4 l3.64 0 c0.36 0 1.12 0.16 1.12 1.4 l0 11.96 l15.16 0 l0 -11.96 c0 -1.24 0.76 -1.4 1.08 -1.4 l3.68 0 z M365.57000000000005 7.039999999999999 c2.72 0 4.68 0.84 5.88 2.56 c1.16 1.6 1.72 3.92 1.76 7 c0 3.16 -0.56 5.56 -1.76 7.24 s-3.16 2.52 -5.88 2.52 l-13.68 0.04 l0 12.24 c0 1.24 -0.8 1.4 -1.12 1.4 l-3.68 0 c-0.32 0 -1.12 -0.16 -1.12 -1.4 l0 -16.8 c0 -1.24 0.8 -1.36 1.12 -1.36 l17.44 0 c1 0 1.72 -0.28 2.12 -0.88 c0.44 -0.6 0.64 -1.56 0.64 -2.88 s-0.2 -2.28 -0.64 -2.88 c-0.4 -0.6 -1.12 -0.88 -2.12 -0.88 l-17.44 0 c-0.32 0 -1.12 -0.12 -1.12 -1.36 l0 -3.16 c0 -1.28 0.8 -1.4 1.12 -1.4 l18.48 0 z M410.77900000000005 38.28 c0.16 0.24 0.2 0.56 0.16 0.96 c-0.08 0.48 -0.44 0.8 -0.92 0.8 l-4.4 0 c-0.36 0 -0.64 -0.08 -0.84 -0.24 c-0.16 -0.12 -0.28 -0.32 -0.44 -0.56 l-7.24 -12.84 l-8.44 0 l0 12.24 c0 1.24 -0.76 1.4 -1.12 1.4 l-3.64 0 c-0.36 0 -1.16 -0.16 -1.16 -1.4 l0 -16.8 c0 -1.24 0.8 -1.36 1.16 -1.36 l17.4 0 c1.04 0 1.72 -0.28 2.12 -0.88 c0.44 -0.6 0.64 -1.56 0.64 -2.88 s-0.2 -2.28 -0.64 -2.88 c-0.4 -0.6 -1.08 -0.88 -2.12 -0.88 l-17.4 0 c-0.36 0 -1.16 -0.12 -1.16 -1.36 l0 -3.16 c0 -1.28 0.8 -1.4 1.16 -1.4 l18.44 0 c2.72 0 4.72 0.84 5.92 2.56 c1.08 1.64 1.68 3.96 1.76 7 l0 0.24 c-0.08 3.08 -0.68 5.4 -1.76 7 c-1 1.36 -2.52 2.2 -4.48 2.44 z M441.94800000000004 10.760000000000002 l11.24 27.72 c0.16 0.36 0.2 0.72 0.12 0.96 c-0.08 0.2 -0.24 0.6 -0.88 0.6 l-4.28 0 c-0.56 0 -0.96 -0.32 -1.16 -0.88 l-9.92 -24.76 l-0.04 -0.08 l-0.16 0 s-0.04 0.04 -0.08 0.12 l-5.12 12.96 l4.96 0 c0.52 0 0.96 0.32 1.16 0.8 l1.44 3.56 c0.12 0.4 0.08 0.84 -0.16 1.16 c-0.2 0.36 -0.6 0.56 -1.04 0.56 l-8.76 0 l-2.28 5.72 c-0.2 0.52 -0.6 0.84 -1.12 0.84 l-4.4 0 c-0.64 0 -0.84 -0.36 -0.88 -0.6 c-0.08 -0.24 -0.04 -0.6 0.08 -0.96 l11.16 -27.72 c0.56 -1.44 1.16 -2.4 1.76 -2.92 c0.16 -0.12 0.36 -0.28 0.6 -0.4 c0.8 -0.56 1.76 -0.84 2.76 -0.84 c2.2 0 4.12 1.48 4.76 3.56 z M490.59700000000004 17.24 c0 2.48 -0.64 4.44 -2 5.8 c1.44 1.32 2.2 3.32 2.2 5.96 l0 2.68 c0 1.24 -0.12 2.4 -0.32 3.4 c-0.24 1.04 -0.56 1.92 -1.08 2.64 c-0.48 0.76 -1.16 1.32 -2 1.72 c-0.8 0.4 -1.8 0.6 -3 0.6 l-18 0 c-1.24 0 -2.4 -0.64 -3.04 -1.72 c-0.2 -0.36 -0.36 -0.8 -0.44 -1.24 l0.04 -27.32 c0.08 -0.32 0.24 -0.68 0.4 -1 c0.6 -0.96 1.6 -1.6 2.76 -1.68 l0 -0.04 l17.68 0 c2.44 0 4.2 0.68 5.24 2.04 c1.04 1.32 1.56 3.32 1.56 5.92 l0 2.24 z M468.797 33.88 c0 0.16 0.04 0.2 0.04 0.2 l13.92 0 c0.8 0 1.36 -0.16 1.68 -0.52 s0.48 -1 0.48 -1.92 l0 -2.72 c0 -0.88 -0.2 -1.52 -0.52 -1.92 c-0.36 -0.4 -1.04 -0.64 -2.08 -0.64 l-7.76 0 c-0.72 0 -1.32 -0.56 -1.32 -1.32 l0 -3.28 c0 -0.72 0.6 -1.32 1.32 -1.32 l7.76 0 c1.04 0 1.72 -0.2 2.04 -0.56 c0.36 -0.4 0.52 -1 0.52 -1.76 l0 -2.76 c0 -0.84 -0.16 -1.48 -0.48 -1.84 s-0.88 -0.56 -1.64 -0.56 l-13.88 0 c-0.04 0 -0.08 0.08 -0.08 0.24 l0 20.68 z M526.166 7.039999999999999 c0.36 0 1.16 0.16 1.16 1.4 l0 30.2 c0 1.24 -0.8 1.4 -1.16 1.4 l-3.68 0 c-0.32 0 -1.08 -0.16 -1.08 -1.4 l0 -12.32 l-15.16 0 l0 12.32 c0 1.24 -0.76 1.4 -1.12 1.4 l-3.64 0 c-0.36 0 -1.16 -0.16 -1.16 -1.4 l0 -30.2 c0 -1.24 0.8 -1.4 1.16 -1.4 l3.64 0 c0.36 0 1.12 0.16 1.12 1.4 l0 11.96 l15.16 0 l0 -11.96 c0 -1.24 0.76 -1.4 1.08 -1.4 l3.68 0 z M564.495 7.039999999999999 c0.36 0 1.12 0.12 1.12 1.36 l0 19.08 c0 2.24 -0.16 4.16 -0.52 5.72 c-0.36 1.6 -0.92 2.92 -1.72 3.92 c-0.8 1.04 -1.84 1.76 -3.12 2.24 c-1.24 0.44 -2.76 0.64 -4.52 0.64 l-9 0 c-1.76 0 -3.28 -0.2 -4.52 -0.64 c-1.24 -0.48 -2.32 -1.2 -3.08 -2.24 c-0.8 -1 -1.4 -2.32 -1.76 -3.92 c-0.36 -1.56 -0.52 -3.48 -0.52 -5.72 l0 -19.08 c0 -1.24 0.8 -1.36 1.16 -1.36 l3.64 0 c0.36 0 1.12 0.12 1.12 1.36 l0 19.72 c0 1.2 0.08 2.24 0.2 3 c0.16 0.76 0.4 1.36 0.68 1.8 c0.32 0.4 0.68 0.68 1.2 0.88 c0.52 0.16 1.24 0.28 2.08 0.28 l8.64 0 c0.84 0 1.56 -0.12 2.08 -0.28 c0.52 -0.2 0.88 -0.48 1.2 -0.88 c0.28 -0.44 0.52 -1.04 0.64 -1.8 s0.2 -1.8 0.2 -3 l0 -19.72 c0 -1.24 0.76 -1.36 1.12 -1.36 l3.68 0 z"></path></g></svg>